<svg xmlns="http://www.w3.org/2000/svg" width="48" height="48" viewBox="0 0 48 48"><defs><style>.a{fill:#eee;}</style></defs><title>Provisioning_Menu_Icon_Gray</title><path class="a" d="M36,30v-2.2H34.07a5.29,5.29,0,0,0-.75-1.8l1.37-1.37L33.13,23,31.76,24.4a5.29,5.29,0,0,0-1.8-.75V21.72h-2.2v1.93a5.29,5.29,0,0,0-1.8.75L24.59,23,23,24.59,24.4,26a5.29,5.29,0,0,0-.75,1.8H21.72V30h1.93a5.29,5.29,0,0,0,.75,1.8L23,33.13l1.56,1.56L26,33.32a5.29,5.29,0,0,0,1.8.75V36H30V34.07a5.29,5.29,0,0,0,1.8-.75l1.37,1.37,1.56-1.56-1.37-1.37a5.29,5.29,0,0,0,.75-1.8Zm-7.14,2A3.12,3.12,0,1,1,32,28.86,3.13,3.13,0,0,1,28.86,32Z"/><path class="a" d="M25.24,22.73l.82-2L24.27,20a5.29,5.29,0,0,0,0-2L26,17.25l-.86-2L23.39,16A5.29,5.29,0,0,0,22,14.61l.72-1.79-2-.82L20,13.79a5.29,5.29,0,0,0-2,0L17.25,12l-2,.86L16,14.67a5.29,5.29,0,0,0-1.37,1.39l-1.79-.72-.82,2,1.79.72a5.29,5.29,0,0,0,0,2L12,20.81l.86,2,1.78-.76a5.29,5.29,0,0,0,1.39,1.37l-.72,1.79,2,.82.72-1.79a5.29,5.29,0,0,0,2,0L20.81,26l2-.86-.76-1.78A5.29,5.29,0,0,0,23.45,22Zm-7.38-.8a3.12,3.12,0,1,1,4.07-1.73A3.13,3.13,0,0,1,17.86,21.93Z"/></svg>