<svg xmlns="http://www.w3.org/2000/svg" width="48" height="48" viewBox="0 0 48 48"><defs><style>.a{fill:#fed189;}</style></defs><title>Tools_Menu_Icon_Yellow</title><path class="a" d="M35.24,35.74c-.15.15-.86-.11-1.57-.58l-1.84-1.21a3.66,3.66,0,0,1-1.47-1.67l-.17-.81-3.65-3.65,1.33-1.33,3.65,3.65.81.17A3.66,3.66,0,0,1,34,31.78l1.21,1.84c.47.72.73,1.42.58,1.57ZM19,22.82l3.91-3.91-6.1-6.1a2.77,2.77,0,1,0-3.92,3.91Zm15.34-1.24a5.61,5.61,0,0,1-4.71,1.58L17.73,35a3.28,3.28,0,1,1-4.65-4.64L24.84,18.64a5.72,5.72,0,0,1-.07-1.53A5.6,5.6,0,0,1,31,12.06c.85.1,1,.88.4,1.49l-2.19,2.19a1.27,1.27,0,0,0,0,1.8l1.37,1.37a1.27,1.27,0,0,0,1.79,0l2.12-2.12c.61-.61,1.36-.44,1.43.42A5.57,5.57,0,0,1,34.31,21.58Z"/></svg>